<?xml version="1.0" standalone="no"?>
<!DOCTYPE svg PUBLIC "-//W3C//DTD SVG 20010904//EN"
 "http://www.w3.org/TR/2001/REC-SVG-20010904/DTD/svg10.dtd">
<svg version="1.0" xmlns="http://www.w3.org/2000/svg"
 width="1024.000000pt" height="1024.000000pt" viewBox="0 0 1024.000000 1024.000000"
 preserveAspectRatio="xMidYMid meet">

<g transform="translate(0.000000,1024.000000) scale(0.100000,-0.100000)"
fill="#000000" stroke="none">
<path d="M2216 7008 c-6 -166 -96 -3912 -96 -3970 0 -17 27 -18 445 -18 l444
0 -5 143 c-6 173 -94 3878 -94 3977 l0 70 -344 0 -344 0 -6 -202z"/>
<path d="M3500 7188 c0 -64 -90 -3802 -95 -3970 l-7 -198 446 0 446 0 -5 163
c-7 173 -95 3887 -95 3975 l0 52 -345 0 -345 0 0 -22z"/>
<path d="M4780 7173 c0 -78 -89 -3807 -95 -3975 l-6 -178 446 0 446 0 -6 178
c-6 168 -95 3897 -95 3975 l0 37 -345 0 -345 0 0 -37z"/>
<path d="M6060 7158 c0 -89 -88 -3802 -95 -3975 l-5 -163 446 0 446 0 -7 198
c-5 169 -95 3907 -95 3970 l0 22 -345 0 -345 0 0 -52z"/>
<path d="M7340 7141 c0 -93 -87 -3786 -94 -3973 l-5 -148 444 0 c417 0 445 1
445 18 0 9 -23 949 -50 2087 -27 1139 -50 2073 -50 2078 0 4 -155 7 -345 7
l-345 0 0 -69z"/>
</g>
</svg>
